# xmcd
#
# Track frame offsets:
#	150
#	17180
#	33030
#	48463
#	63667
#	75517
#	86040
#	100320
#	113084
#	126982
#	141490
#	155871
#
# Disc length: 2253 seconds
#
# Revision: 0
# Processed by: cddbd v1.5.2PL0 Copyright (c) Steve Scherf et al.
# Submitted via: audiograbber 1.83.01
#
DISCID=a508cb0c
DTITLE=Ivan Rebroff - Starportrait
DYEAR=1971
DGENRE=Ballad
TTITLE0=Die Legende Von Den 12 Räubern
TTITLE1=Die Zügel Ganz Fest In Der Hand
TTITLE2=Eintönig Hell Klingt Das Glöckchen
TTITLE3=Die Newa
TTITLE4=Moskauer Nächte
TTITLE5=Ach Natascha
TTITLE6=Schiwago-Melodie  (Lara´s Theme)
TTITLE7=Mit Der Troika In Die Grosse Stadt
TTITLE8=Zwei Gitarren
TTITLE9=Schwarze Augen
TTITLE10=Eine Weisse Birke
TTITLE11=Kalinka
EXTD=
EXTT0=
EXTT1=
EXTT2=
EXTT3=
EXTT4=
EXTT5=
EXTT6=
EXTT7=
EXTT8=
EXTT9=
EXTT10=
EXTT11=
PLAYORDER=
